<svg width="404" height="83" viewBox="0 0 404 83" fill="none" xmlns="http://www.w3.org/2000/svg">
<path d="M38.2656 0.00976562C50.2025 0.362824 59.7704 10.1505 59.7705 22.1729C59.7705 30.0734 55.6379 37.0074 49.417 40.9346C55.6379 44.8617 59.7704 51.7958 59.7705 59.6963C59.7705 71.7187 50.2025 81.5053 38.2656 81.8584V81.8701H0V0H38.2656V0.00976562Z" fill="#0041FF"/>
<circle cx="37.5978" cy="59.6965" r="21.6482" fill="white" stroke="#0041FF" stroke-width="1.04961"/>
<path d="M24.1411 53.5371V48.7627H32.4588V70.683H27.1139V53.5371H24.1411Z" fill="#0041FF"/>
<path d="M35.7912 66.5692C36.4719 66.0287 36.7821 65.7785 36.7221 65.8185C38.6839 64.197 40.2253 62.8658 41.3464 61.8248C42.4874 60.7838 43.4483 59.6928 44.2291 58.5518C45.0098 57.4107 45.4001 56.2997 45.4001 55.2187C45.4001 54.3979 45.21 53.7573 44.8296 53.2969C44.4493 52.8365 43.8787 52.6062 43.118 52.6062C42.3573 52.6062 41.7568 52.8965 41.3164 53.477C40.896 54.0376 40.6858 54.8383 40.6858 55.8793H35.7312C35.7712 54.1777 36.1315 52.7564 36.8122 51.6153C37.5128 50.4743 38.4237 49.6335 39.5447 49.093C40.6858 48.5525 41.9469 48.2822 43.3282 48.2822C45.7104 48.2822 47.5021 48.8928 48.7032 50.1139C49.9243 51.3351 50.5349 52.9265 50.5349 54.8884C50.5349 57.0303 49.8042 59.0222 48.3429 60.8639C46.8815 62.6856 45.0198 64.4673 42.7577 66.2089H50.8652V70.6687H35.7912V66.5692Z" fill="#0041FF"/>
<path d="M115.355 40.8483V82.1106H105.304V65.1237H89.6691V82.1106H79.618V40.8483H89.6691V57.0123H105.304V40.8483H115.355Z" fill="#282828"/>
<path d="M152.056 65.1825C152.056 66.1229 151.997 67.1026 151.88 68.1214H129.133C129.289 70.159 129.936 71.7265 131.072 72.8237C132.248 73.8817 133.678 74.4107 135.363 74.4107C137.871 74.4107 139.615 73.3527 140.594 71.2366H151.292C150.743 73.3918 149.744 75.3315 148.294 77.0557C146.884 78.7798 145.101 80.1317 142.945 81.1114C140.79 82.091 138.38 82.5808 135.716 82.5808C132.503 82.5808 129.642 81.8951 127.134 80.5236C124.626 79.1521 122.667 77.1928 121.256 74.6458C119.846 72.0987 119.14 69.1206 119.14 65.7115C119.14 62.3024 119.826 59.3243 121.198 56.7772C122.608 54.2302 124.567 52.2709 127.075 50.8994C129.583 49.5279 132.463 48.8421 135.716 48.8421C138.89 48.8421 141.711 49.5083 144.18 50.8406C146.648 52.1729 148.569 54.0734 149.94 56.5421C151.351 59.0108 152.056 61.8909 152.056 65.1825ZM141.77 62.5375C141.77 60.8133 141.182 59.4418 140.007 58.423C138.831 57.4042 137.362 56.8948 135.598 56.8948C133.913 56.8948 132.483 57.3846 131.307 58.3642C130.171 59.3439 129.466 60.7349 129.191 62.5375H141.77Z" fill="#282828"/>
<path d="M153.888 65.6527C153.888 62.2828 154.515 59.3243 155.769 56.7772C157.062 54.2302 158.806 52.2709 161 50.8994C163.194 49.5279 165.643 48.8421 168.347 48.8421C170.659 48.8421 172.677 49.3124 174.401 50.2528C176.165 51.1933 177.517 52.4276 178.457 53.9559V49.3124H188.508V82.1106H178.457V77.4671C177.477 78.9954 176.106 80.2297 174.343 81.1702C172.618 82.1106 170.6 82.5808 168.288 82.5808C165.624 82.5808 163.194 81.8951 161 80.5236C158.806 79.1129 157.062 77.1341 155.769 74.587C154.515 72.0008 153.888 69.0227 153.888 65.6527ZM178.457 65.7115C178.457 63.2036 177.752 61.2248 176.341 59.7749C174.97 58.325 173.285 57.6001 171.286 57.6001C169.288 57.6001 167.583 58.325 166.172 59.7749C164.801 61.1856 164.115 63.1448 164.115 65.6527C164.115 68.1606 164.801 70.159 166.172 71.6481C167.583 73.098 169.288 73.8229 171.286 73.8229C173.285 73.8229 174.97 73.098 176.341 71.6481C177.752 70.1982 178.457 68.2194 178.457 65.7115Z" fill="#282828"/>
<path d="M204.358 38.6147V82.1106H194.307V38.6147H204.358Z" fill="#282828"/>
<path d="M228.45 73.5878V82.1106H223.336C219.692 82.1106 216.851 81.2289 214.813 79.4656C212.776 77.6631 211.757 74.7437 211.757 70.7076V57.6589H207.76V49.3124H211.757V41.3185H221.808V49.3124H228.391V57.6589H221.808V70.8252C221.808 71.8048 222.043 72.5102 222.513 72.9412C222.984 73.3722 223.767 73.5878 224.864 73.5878H228.45Z" fill="#282828"/>
<path d="M252.737 48.9597C256.499 48.9597 259.516 50.2136 261.789 52.7215C264.062 55.1902 265.198 58.5993 265.198 62.9489V82.1106H255.206V64.3008C255.206 62.1064 254.638 60.4019 253.501 59.1871C252.365 57.9724 250.837 57.365 248.917 57.365C246.996 57.365 245.468 57.9724 244.332 59.1871C243.195 60.4019 242.627 62.1064 242.627 64.3008V82.1106H232.576V38.6147H242.627V53.7207C243.646 52.2709 245.037 51.1149 246.801 50.2528C248.564 49.3907 250.543 48.9597 252.737 48.9597Z" fill="#282828"/>
<path d="M268.712 65.7115C268.712 62.3024 269.398 59.3243 270.769 56.7772C272.18 54.2302 274.119 52.2709 276.588 50.8994C279.096 49.5279 281.957 48.8421 285.17 48.8421C289.284 48.8421 292.713 49.9198 295.456 52.075C298.238 54.2302 300.06 57.267 300.922 61.1856H290.225C289.323 58.6777 287.58 57.4238 284.993 57.4238C283.152 57.4238 281.682 58.1487 280.585 59.5986C279.488 61.0092 278.939 63.0469 278.939 65.7115C278.939 68.3761 279.488 70.4333 280.585 71.8832C281.682 73.2939 283.152 73.9992 284.993 73.9992C287.58 73.9992 289.323 72.7453 290.225 70.2374H300.922C300.06 74.0776 298.238 77.0949 295.456 79.2893C292.674 81.4836 289.245 82.5808 285.17 82.5808C281.957 82.5808 279.096 81.8951 276.588 80.5236C274.119 79.1521 272.18 77.1928 270.769 74.6458C269.398 72.0987 268.712 69.1206 268.712 65.7115Z" fill="#282828"/>
<path d="M302.828 65.6527C302.828 62.2828 303.455 59.3243 304.709 56.7772C306.002 54.2302 307.746 52.2709 309.94 50.8994C312.134 49.5279 314.583 48.8421 317.287 48.8421C319.599 48.8421 321.617 49.3124 323.341 50.2528C325.105 51.1933 326.457 52.4276 327.397 53.9559V49.3124H337.448V82.1106H327.397V77.4671C326.418 78.9954 325.046 80.2297 323.283 81.1702C321.559 82.1106 319.54 82.5808 317.229 82.5808C314.564 82.5808 312.134 81.8951 309.94 80.5236C307.746 79.1129 306.002 77.1341 304.709 74.587C303.455 72.0008 302.828 69.0227 302.828 65.6527ZM327.397 65.7115C327.397 63.2036 326.692 61.2248 325.281 59.7749C323.91 58.325 322.225 57.6001 320.226 57.6001C318.228 57.6001 316.523 58.325 315.113 59.7749C313.741 61.1856 313.055 63.1448 313.055 65.6527C313.055 68.1606 313.741 70.159 315.113 71.6481C316.523 73.098 318.228 73.8229 320.226 73.8229C322.225 73.8229 323.91 73.098 325.281 71.6481C326.692 70.1982 327.397 68.2194 327.397 65.7115Z" fill="#282828"/>
<path d="M353.298 54.7787C354.474 52.9762 355.944 51.5655 357.707 50.5467C359.47 49.4887 361.429 48.9597 363.585 48.9597V59.5986H360.822C358.314 59.5986 356.433 60.1472 355.179 61.2444C353.925 62.3024 353.298 64.1833 353.298 66.8871V82.1106H343.247V49.3124H353.298V54.7787Z" fill="#282828"/>
<path d="M397.834 65.1825C397.834 66.1229 397.775 67.1026 397.658 68.1214H374.91C375.067 70.159 375.714 71.7265 376.85 72.8237C378.026 73.8817 379.456 74.4107 381.141 74.4107C383.649 74.4107 385.392 73.3527 386.372 71.2366H397.07C396.521 73.3918 395.522 75.3315 394.072 77.0557C392.661 78.7798 390.878 80.1317 388.723 81.1114C386.568 82.091 384.158 82.5808 381.493 82.5808C378.28 82.5808 375.42 81.8951 372.912 80.5236C370.404 79.1521 368.445 77.1928 367.034 74.6458C365.623 72.0987 364.918 69.1206 364.918 65.7115C364.918 62.3024 365.604 59.3243 366.975 56.7772C368.386 54.2302 370.345 52.2709 372.853 50.8994C375.361 49.5279 378.241 48.8421 381.493 48.8421C384.668 48.8421 387.489 49.5083 389.958 50.8406C392.426 52.1729 394.346 54.0734 395.718 56.5421C397.129 59.0108 397.834 61.8909 397.834 65.1825ZM387.548 62.5375C387.548 60.8133 386.96 59.4418 385.784 58.423C384.609 57.4042 383.139 56.8948 381.376 56.8948C379.691 56.8948 378.261 57.3846 377.085 58.3642C375.949 59.3439 375.243 60.7349 374.969 62.5375H387.548Z" fill="#282828"/>
<path d="M397.912 32.252C396.903 32.252 395.916 32.5614 395.077 33.1413C394.238 33.7211 393.584 34.5453 393.197 35.5095C392.811 36.4737 392.71 37.5348 392.907 38.5584C393.104 39.582 393.59 40.5223 394.304 41.2603C395.017 41.9983 395.927 42.5009 396.917 42.7045C397.907 42.9081 398.933 42.8036 399.866 42.4042C400.798 42.0048 401.595 41.3284 402.156 40.4606C402.717 39.5928 403.016 38.5726 403.016 37.5289C403.016 36.1294 402.478 34.7872 401.521 33.7975C400.564 32.8079 399.266 32.252 397.912 32.252ZM397.912 41.7505C397.105 41.7505 396.316 41.5029 395.644 41.0391C394.973 40.5752 394.449 39.9159 394.14 39.1445C393.831 38.3731 393.75 37.5242 393.908 36.7053C394.066 35.8864 394.454 35.1342 395.025 34.5438C395.596 33.9534 396.324 33.5514 397.116 33.3885C397.908 33.2256 398.729 33.3092 399.475 33.6287C400.221 33.9482 400.859 34.4893 401.307 35.1835C401.756 35.8778 401.995 36.6939 401.995 37.5289C401.995 38.6485 401.565 39.7223 400.8 40.514C400.034 41.3057 398.995 41.7505 397.912 41.7505Z" fill="#282828"/>
<path d="M399.954 36.4742C399.954 36.0543 399.793 35.6517 399.506 35.3548C399.218 35.0579 398.829 34.8911 398.423 34.8911H395.871V40.1681H396.892V38.0573H397.637L399 40.1681H400.224L398.821 37.994C399.145 37.9038 399.431 37.7064 399.636 37.4318C399.84 37.1573 399.952 36.8208 399.954 36.4742ZM398.423 37.0019H396.892V35.9465H398.423C398.558 35.9465 398.688 36.0021 398.784 36.1011C398.879 36.2 398.933 36.3342 398.933 36.4742C398.933 36.6141 398.879 36.7484 398.784 36.8473C398.688 36.9463 398.558 37.0019 398.423 37.0019Z" fill="#282828"/>
</svg>
